<?xml version="1.0" encoding="UTF-8" standalone="no"?>
<svg
   version="1.1"
   id="Layer_1"
   x="0px"
   y="0px"
   viewBox="0 0 137.57314 85.353904"
   xml:space="preserve"
   width="137.57314"
   height="85.353905"
   sodipodi:docname="logo.svg"
   inkscape:version="1.3.2 (091e20ef0f, 2023-11-25)"
   xmlns:inkscape="http://www.inkscape.org/namespaces/inkscape"
   xmlns:sodipodi="http://sodipodi.sourceforge.net/DTD/sodipodi-0.dtd"
   xmlns:xlink="http://www.w3.org/1999/xlink"
   xmlns="http://www.w3.org/2000/svg"
   xmlns:svg="http://www.w3.org/2000/svg"><sodipodi:namedview
   id="namedview2063"
   pagecolor="#ffffff"
   bordercolor="#000000"
   borderopacity="0.25"
   inkscape:showpageshadow="2"
   inkscape:pageopacity="0.0"
   inkscape:pagecheckerboard="0"
   inkscape:deskcolor="#d1d1d1"
   showgrid="false"
   inkscape:zoom="3.83"
   inkscape:cx="98.302871"
   inkscape:cy="15.013055"
   inkscape:window-width="1920"
   inkscape:window-height="1044"
   inkscape:window-x="1080"
   inkscape:window-y="547"
   inkscape:window-maximized="1"
   inkscape:current-layer="Layer_1" /><defs
   id="defs207">	
	

		<defs
   id="defs183">
			<path
   id="SVGID_1_"
   d="m 84.109,81.648 -4.833,1.003 v 142.585 c 0,128.975 80.512,226.087 209.403,286.769 h 0.191 C 417.756,451.328 498.273,354.212 498.273,225.236 V 82.651 l -4.649,-0.966 C 358.563,53.629 219.177,53.616 84.109,81.648 Z" />
		</defs>
		
		
		
		
	
			
		<path
   id="SVGID_1_-6"
   d="m 84.109,81.648 -4.833,1.003 v 142.585 c 0,128.975 80.512,226.087 209.403,286.769 h 0.191 C 417.756,451.328 498.273,354.212 498.273,225.236 V 82.651 l -4.649,-0.966 C 358.563,53.629 219.177,53.616 84.109,81.648 Z" />











	
	
	
	
	





		<defs
   id="defs256">
			<path
   id="path321"
   d="m 84.109,81.648 -4.833,1.003 v 142.585 c 0,128.975 80.512,226.087 209.403,286.769 h 0.191 C 417.756,451.328 498.273,354.212 498.273,225.236 V 82.651 l -4.649,-0.966 C 358.563,53.629 219.177,53.616 84.109,81.648 Z" />
		</defs>
		<clipPath
   id="SVGID_2_-7">
			<use
   xlink:href="#SVGID_1_-6"
   style="overflow:visible"
   id="use258" />
		</clipPath>
		
		
		
	
			
		
			
		
			
		</defs>

			
		















<rect
   style="opacity:0.97654;fill:none;fill-opacity:1;stroke-width:3.39019;-inkscape-stroke:none;paint-order:markers stroke fill;stop-color:#000000"
   id="rect676"
   width="300"
   height="120"
   x="3.9752548"
   y="-112.50411" /><g
   id="g2316"
   style="fill:#42474c"
   transform="translate(3.9752484,-112.50411)" />
			
		<g
   id="g2305"
   style="fill:#42474c"
   transform="translate(3.9752484,-112.50411)" />
			
		
			
		<g
   id="path453"
   transform="translate(3.9752484,-112.50411)" /><g
   id="g8"
   transform="matrix(3.3096718,0,0,3.3096718,584.69457,-446.24921)"
   style="fill:#ffffff"><path
     style="color:#000000;fill:#ffffff;stroke-linecap:round;stroke-linejoin:round;-inkscape-stroke:none;paint-order:fill markers stroke"
     d="m -143.92383,136.39453 a 1.106305,1.106305 0 0 0 -0.84179,0.0898 1.106305,1.106305 0 0 0 -0.44141,1.5 l 5.29883,9.74219 -5.29883,9.74024 a 1.106305,1.106305 0 0 0 0.44141,1.50195 1.106305,1.106305 0 0 0 1.50195,-0.44336 l 5.58789,-10.26953 a 1.1064156,1.1064156 0 0 0 0,-1.05859 l -5.58789,-10.26954 a 1.106305,1.106305 0 0 0 -0.66016,-0.5332 z"
     id="path2" /><path
     style="color:#000000;fill:#ffffff;stroke-linecap:round;stroke-linejoin:round;-inkscape-stroke:none;paint-order:fill markers stroke"
     d="m -161.60156,136.76367 a 1.1064156,1.1064156 0 0 0 -0.95703,0.55078 l -5.72266,9.85547 a 1.1064156,1.1064156 0 0 0 0,1.11133 l 5.72266,9.85742 a 1.1064156,1.1064156 0 0 0 1.91601,-0.008 l 3.2461,-5.67774 a 1.1064156,1.1064156 0 0 0 -0.16602,-1.32031 c 0,0 -0.57332,-0.59343 -1.14258,-1.36719 -0.56926,-0.77375 -1.02344,-1.79401 -1.02344,-2.03906 0,-1.13099 0.90781,-2.64036 1.91993,-3.21679 1.03498,-0.58947 2.82437,-0.58947 3.85937,0 1.01211,0.57643 1.91992,2.0858 1.91992,3.21679 0,0.24505 -0.45417,1.26531 -1.02343,2.03906 -0.56927,0.77376 -1.14258,1.36719 -1.14258,1.36719 a 1.1064156,1.1064156 0 0 0 -0.16602,1.32031 l 3.24414,5.67774 a 1.1064156,1.1064156 0 0 0 1.91797,0.008 l 5.72266,-9.85742 a 1.1064156,1.1064156 0 0 0 0,-1.11133 l -5.72266,-9.85547 a 1.1064156,1.1064156 0 0 0 -0.95703,-0.55078 z m 0.63672,2.21289 h 10.17187 l 5.08008,8.75 -4.43555,7.63867 -1.91211,-3.3457 c 0.25642,-0.28589 0.39387,-0.40424 0.78907,-0.94141 0.66955,-0.91007 1.45312,-1.97774 1.45312,-3.35156 0,-2.10677 -1.23383,-4.11275 -3.03516,-5.13867 -1.83559,-1.04543 -4.21519,-1.04544 -6.05078,0 -1.80134,1.02592 -3.03711,3.0319 -3.03711,5.13867 0,1.37383 0.78553,2.44149 1.45508,3.35156 0.3952,0.53717 0.53265,0.65552 0.78906,0.94141 l -1.9121,3.3457 -4.4375,-7.63867 z"
     id="path6" /><path
     style="color:#000000;fill:#ffffff;stroke-linecap:round;stroke-linejoin:round;-inkscape-stroke:none;paint-order:fill markers stroke"
     d="m -167.83594,136.39453 a 1.106305,1.106305 0 0 0 -0.6582,0.5332 l -5.58789,10.26954 a 1.1064156,1.1064156 0 0 0 0,1.05859 l 5.58789,10.26953 a 1.106305,1.106305 0 0 0 1.50195,0.44336 1.106305,1.106305 0 0 0 0.44141,-1.50195 l -5.29883,-9.74024 5.29883,-9.74219 a 1.106305,1.106305 0 0 0 -0.44141,-1.5 1.106305,1.106305 0 0 0 -0.84375,-0.0898 z"
     id="path7" /></g></svg>
