<?xml version="1.0" encoding="UTF-8" standalone="no"?>
<svg
   version="1.1"
   id="Layer_1"
   x="0px"
   y="0px"
   viewBox="0 0 300.59766 83.785156"
   xml:space="preserve"
   width="300.59766"
   height="83.785156"
   sodipodi:docname="logo.svg"
   inkscape:version="1.3.2 (091e20ef0f, 2023-11-25)"
   xmlns:inkscape="http://www.inkscape.org/namespaces/inkscape"
   xmlns:sodipodi="http://sodipodi.sourceforge.net/DTD/sodipodi-0.dtd"
   xmlns:xlink="http://www.w3.org/1999/xlink"
   xmlns="http://www.w3.org/2000/svg"
   xmlns:svg="http://www.w3.org/2000/svg"><sodipodi:namedview
   id="namedview2063"
   pagecolor="#ffffff"
   bordercolor="#000000"
   borderopacity="0.25"
   inkscape:showpageshadow="2"
   inkscape:pageopacity="0.0"
   inkscape:pagecheckerboard="0"
   inkscape:deskcolor="#d1d1d1"
   showgrid="false"
   inkscape:zoom="2.708219"
   inkscape:cx="79.203344"
   inkscape:cy="-3.138594"
   inkscape:window-width="1920"
   inkscape:window-height="1044"
   inkscape:window-x="1080"
   inkscape:window-y="547"
   inkscape:window-maximized="1"
   inkscape:current-layer="Layer_1" /><defs
   id="defs207">	
	

		<defs
   id="defs183">
			<path
   id="SVGID_1_"
   d="m 84.109,81.648 -4.833,1.003 v 142.585 c 0,128.975 80.512,226.087 209.403,286.769 h 0.191 C 417.756,451.328 498.273,354.212 498.273,225.236 V 82.651 l -4.649,-0.966 C 358.563,53.629 219.177,53.616 84.109,81.648 Z" />
		</defs>
		
		
		
		
	
			
		<path
   id="SVGID_1_-6"
   d="m 84.109,81.648 -4.833,1.003 v 142.585 c 0,128.975 80.512,226.087 209.403,286.769 h 0.191 C 417.756,451.328 498.273,354.212 498.273,225.236 V 82.651 l -4.649,-0.966 C 358.563,53.629 219.177,53.616 84.109,81.648 Z" />











	
	
	
	
	





		<defs
   id="defs256">
			<path
   id="path321"
   d="m 84.109,81.648 -4.833,1.003 v 142.585 c 0,128.975 80.512,226.087 209.403,286.769 h 0.191 C 417.756,451.328 498.273,354.212 498.273,225.236 V 82.651 l -4.649,-0.966 C 358.563,53.629 219.177,53.616 84.109,81.648 Z" />
		</defs>
		<clipPath
   id="SVGID_2_-7">
			<use
   xlink:href="#SVGID_1_-6"
   style="overflow:visible"
   id="use258" />
		</clipPath>
		
		
		
	
			
		
			
		
			
		</defs>

			
		















<rect
   style="opacity:0.97654;fill:none;fill-opacity:1;stroke-width:3.39019;-inkscape-stroke:none;paint-order:markers stroke fill;stop-color:#000000"
   id="rect676"
   width="300"
   height="120"
   x="0.18153386"
   y="-115.09313" /><g
   id="g2316"
   style="fill:#42474c"
   transform="translate(0.18152751,-115.09313)" />
			
		<g
   id="g2305"
   style="fill:#42474c"
   transform="translate(0.18152751,-115.09313)" />
			
		
			
		<g
   id="path453"
   transform="translate(0.18152751,-115.09313)" /><path
   id="path1"
   style="color:#000000;-inkscape-font-specification:'Just Another Hand';fill:#ffffff;stroke-linecap:square;-inkscape-stroke:none;paint-order:fill markers stroke"
   d="M 7.3320312,0 C 6.5578235,0 5.7679153,0.05616 4.9648438,0.164062 4.1235002,0.244712 3.333829,0.471524 2.6210938,0.843754 1.8719432,1.199364 1.2320094,1.744914 0.75585938,2.437504 0.22565556,3.208694 0,4.165084 0,5.220704 c 0,0.96093 0.46496956,1.96629 1.3457031,2.34375 l 0.037109,0.0156 0.039063,0.0137 c 0.6225196,0.20751 1.2616276,0.31445 1.9003906,0.31445 h 0.4355469 c -0.057041,1.06212 -0.1171875,2.12578 -0.1171875,3.16992 v 0.0117 0.0117 c 0.034547,1.38189 0.018406,2.78283 -0.050781,4.20117 l -0.00195,0.0137 v 0.0156 c -0.070284,3.51419 -0.1582522,6.99184 -0.2636718,10.43554 -0.1058484,3.45772 -0.1582032,6.95085 -0.1582032,10.47852 0,5.55034 0.2297602,11.04855 0.6894532,16.49414 0.4570899,5.41475 1.0023268,10.84734 1.6347656,16.29688 0.034274,0.44556 0.068629,1.00122 0.1035156,1.66406 l 0.00195,0.0293 0.00391,0.0293 c 0.072149,0.64935 0.1617528,1.31546 0.2695312,1.99805 0.1090427,0.6906 0.235848,1.34805 0.3828125,1.97265 0.05957,0.25318 0.2124595,0.42834 0.2988281,0.65821 -0.253142,0.10986 -0.5179203,0.15659 -0.7636718,0.30273 -0.6147143,0.33106 -1.1711362,0.76421 -1.65625,1.28711 -0.4834282,0.48672 -0.8935586,1.0365 -1.2167969,1.64258 l -0.017578,0.0352 -0.015625,0.0351 c -0.2952989,0.67497 -0.453125,1.37923 -0.453125,2.08789 0,0.84962 0.5789441,1.64953 1.3203125,2.04492 l 0.011719,0.006 0.011719,0.006 c 0.6641348,0.33207 1.3997805,0.55047 2.1894531,0.66992 0.7838794,0.14754 1.5556626,0.22619 2.3144531,0.22657 0.6841012,0.0338 1.2148604,0.0527 1.5898438,0.0527 h 1.7929689 c 3.955055,0 7.609435,-0.52095 10.953125,-1.57422 3.387905,-1.02085 6.334479,-2.60158 8.802734,-4.73828 2.473964,-2.14163 4.396756,-4.82675 5.751954,-8.01172 1.400919,-3.20981 2.085937,-6.93666 2.085937,-11.1582 v -0.002 c -2.95e-4,-2.11095 -0.238972,-4.17397 -0.712891,-6.18164 -0.441048,-2.0517 -1.13851,-3.97147 -2.097656,-5.74219 -0.965272,-1.78205 -2.214817,-3.38095 -3.730468,-4.78711 -1.201452,-1.16898 -2.641681,-2.10514 -4.210938,-2.90625 1.828415,-2.03943 3.33721,-4.2815 4.349609,-6.8125 1.172612,-2.93153 1.759766,-6.01957 1.759766,-9.23633 0,-3.89306 -0.766644,-7.30482 -2.335937,-10.18359 l -0.002,-0.002 c -1.543362,-2.86541 -3.59997,-5.23921 -6.148437,-7.08593 -2.532913,-1.83544 -5.447271,-3.1901 -8.71875,-4.0625 C 14.153014,0.432454 10.792286,1.2e-4 7.3319899,1.2e-4 Z M 197.86719,0.527344 c -0.77017,0 -1.50812,0.18266 -2.1543,0.54492 -0.83526,0.43127 -1.27344,1.40125 -1.27344,2.35352 0,1.49102 0.10906,2.94911 0.32813,4.37304 l 0.002,0.0137 0.002,0.0117 c 0.24246,1.35081 0.45144,2.73782 0.625,4.16016 2.4e-4,0.002 -2.3e-4,0.004 0,0.006 0.66483,6.58322 1.1024,13.18449 1.3125,19.80273 v 0.002 0.004 c 0.15232,4.09072 0.28498,8.20051 0.42383,12.30469 -0.6142,-2.01104 -1.2368,-4.04059 -1.84375,-6.03711 -1.33742,-4.39941 -2.6938,-8.7998 -4.0664,-13.19922 v -0.002 c -0.95117,-3.02964 -1.93741,-6.04062 -2.95899,-9.03516 l -0.004,-0.008 c -0.98321,-2.98322 -2.21345,-5.87768 -3.67774,-8.6875 -0.0461,-0.86804 -0.25478,-1.68603 -0.69531,-2.37695 -0.42309,-0.74839 -1.00513,-1.3783 -1.7207,-1.84375 -0.66397,-0.45384 -1.42214,-0.78047 -2.25196,-0.98047 -0.81136,-0.22969 -1.61827,-0.35156 -2.41406,-0.35156 -1.20403,0 -2.33536,0.39067 -2.87695,1.35351 l -0.006,0.01 -0.006,0.01 c -0.38129,0.71491 -0.53906,1.55156 -0.53906,2.47657 v 7.49218 c 0,9.81311 -0.0175,19.57372 -0.0527,29.28125 -0.0292,8.05383 -0.038,16.20608 -0.043,24.38086 -0.001,1.68107 -0.01,3.32751 -0.01,5.01368 0,1.96394 0.51808,3.64086 1.63867,4.84765 l 0.0137,0.0137 0.0117,0.0137 c 1.17238,1.17237 2.85374,1.71679 4.82422,1.71679 0.72044,0 1.4536,-0.26524 1.9414,-0.80273 0.40677,-0.41567 0.72251,-0.91167 0.90625,-1.46289 l 0.004,-0.0117 0.002,-0.0117 c 0.16345,-0.53132 0.26626,-1.08147 0.30664,-1.64649 0.0365,-0.51104 0.0547,-0.97335 0.0547,-1.39062 0,-1.90266 0.021,-3.78336 0.0254,-5.68164 0.0132,-5.71312 0.0273,-11.42615 0.0801,-17.09961 v -0.004 c 0.0755,-5.40783 0.19129,-10.85497 0.30273,-16.29882 1.15034,3.81592 2.33195,7.63657 3.37891,11.4375 l 0.002,0.002 v 0.002 c 1.65668,5.88648 3.43663,11.79178 5.33985,17.71289 0.34573,1.10679 0.69328,2.31925 1.04101,3.64063 l 0.004,0.0156 0.004,0.0156 c 0.11959,0.40228 0.25207,0.81708 0.375,1.22265 l -10.52735,-0.64648 10.52735,0.64844 c 0.27633,0.91166 0.55059,1.81972 0.84375,2.74804 l 0.002,0.004 v 0.004 c 0.43048,1.3273 0.9151,2.63649 1.45312,3.92773 l 0.002,0.006 0.002,0.004 c 0.54838,1.27954 1.17515,2.42453 1.88477,3.43554 0.54276,0.81313 1.1485,1.47244 1.83984,1.94922 0.80093,0.56351 1.79691,0.81446 2.89258,0.81446 0.8951,0 1.7081,-0.15938 2.39648,-0.55274 0.62219,-0.35553 1.14201,-0.85029 1.51172,-1.44922 0.38092,-0.59623 0.63623,-1.26456 0.76367,-1.97265 0.0795,-0.36185 0.0848,-0.72602 0.12305,-1.08985 h 0.11133 v -1 c 0,-2.0102 -0.0814,-3.98878 -0.11328,-5.98633 -0.0431,-2.69618 -0.0512,-5.40696 -0.15235,-8.08007 v -0.008 c -0.14053,-4.67339 -0.26372,-9.34613 -0.36914,-14.01953 -0.10559,-4.71627 -0.22835,-9.39696 -0.36914,-14.04297 -0.14098,-4.65254 -0.37045,-9.34011 -0.6875,-14.0625 v -0.01 c -0.10574,-1.86713 -0.22825,-3.75236 -0.36914,-5.6543 v 0.0195 c -0.10653,-1.95315 -0.26536,-3.88825 -0.47851,-5.80664 l -0.004,-0.0254 -0.004,-0.0234 c -0.18309,-1.13519 -0.42131,-2.09233 -0.74023,-2.89258 -0.3329,-0.87195 -0.84047,-1.61729 -1.52149,-2.1621 -0.66096,-0.52879 -1.46089,-0.88654 -2.35546,-1.08985 -0.87287,-0.19838 -1.87334,-0.28906 -3.01758,-0.28906 z m -23.89063,66.05859 -7.70312,-0.47461 c -0.0861,-1.42321 -0.20131,-2.8463 -0.2793,-4.26953 v -0.006 c -0.24656,-5.14118 -0.58152,-10.31633 -1.00391,-15.52734 -0.42376,-6.07387 -1.05863,-12.09581 -1.90625,-18.06445 -0.84039,-5.95284 -1.8934,-11.88703 -3.15039,-17.80469 0.19615,-1.33706 0.31055,-2.62572 0.31055,-3.84766 0,-0.94827 -0.39831,-1.85553 -1.07617,-2.53906 -0.58327,-0.62128 -1.29758,-1.1305 -2.125,-1.52539 -0.77228,-0.38519 -1.58457,-0.67467 -2.43164,-0.86719 -0.82497,-0.1875 -1.55957,-0.28906 -2.22656,-0.28906 -0.6843,0 -1.33495,0.10493 -1.93946,0.31641 -0.45901,0.14522 -0.87947,0.50231 -1.09765,0.92187 -0.22007,0.42322 -0.28516,0.87317 -0.28516,1.3457 0,0.69605 0.1046,1.38 0.31055,2.03907 l 0.002,0.008 0.004,0.01 c 0.13794,0.41382 0.21289,0.88715 0.21289,1.42774 0,0.95116 -0.0987,1.88109 -0.29492,2.79687 l -0.004,0.0176 -0.002,0.0137 c -0.17625,0.98698 -0.3531,1.9936 -0.5293,3.01563 l -0.002,0.008 v 0.008 c -0.9488,6.04421 -1.95166,12.05359 -3.00586,18.02735 -0.78081,4.42464 -1.54118,8.88845 -2.30274,13.35156 -0.0695,-0.28536 -0.0982,-0.39314 -0.17187,-0.69727 l 0.002,0.0137 c -0.52876,-2.32656 -1.1277,-4.87976 -1.79687,-7.66211 l 0.004,0.01 c -0.63362,-2.78089 -1.31988,-5.66589 -2.05859,-8.65625 l -0.004,-0.0137 c -0.70471,-3.02958 -1.40928,-5.85093 -2.11523,-8.46289 -0.70654,-2.61421 -1.37952,-4.89764 -2.01953,-6.85352 l -0.002,-0.004 c -0.60757,-1.88965 -1.13586,-3.19362 -1.70508,-4.10742 -0.36826,-1.47789 -1.10691,-2.67902 -2.24218,-3.38477 -1.07015,-0.71976 -2.38608,-1.05859 -3.86133,-1.05859 -0.58772,0 -1.1099,0.0586 -1.60547,0.34179 l -0.0293,0.0176 -0.0293,0.0195 c -0.54346,0.36231 -0.74616,0.85081 -0.95118,1.42188 -0.13436,0.32633 -0.16751,0.57102 -0.22265,0.95703 -0.0572,0.40015 -0.11032,0.9063 -0.16406,1.5332 l -0.002,0.0137 v 0.0137 c -0.071,1.20634 -0.14237,2.72302 -0.21289,4.55664 -0.0705,1.83264 -0.14052,3.91056 -0.21094,6.23437 -0.0704,2.28711 -0.14056,4.64452 -0.21093,7.07227 -0.0703,2.42706 -0.14059,4.83665 -0.21094,7.22851 v 0.008 0.008 c -0.0352,2.35617 -0.0703,4.55245 -0.10547,6.59179 -0.0351,2.00353 -0.0703,3.74419 -0.10547,5.21876 v 0.0117 3.125 c 0,4.27292 0.10644,8.50985 0.31836,12.71289 0.0436,0.8644 0.0298,1.7478 0.0644,2.61524 h -0.002 c 0.13205,3.31559 0.25,6.63598 0.25,9.99609 0,2.24492 0.59084,4.07409 1.94336,5.20117 l 0.0137,0.0117 0.0137,0.01 c 1.32508,1.02587 3.11045,1.47656 5.25586,1.47656 0.86157,0 1.67919,-0.17004 2.41797,-0.51562 0.99393,-0.44782 1.53711,-1.5598 1.53711,-2.70118 0,-1.07859 -0.11185,-2.15599 -0.33203,-3.23046 -0.17209,-0.99813 -0.30892,-1.99469 -0.41211,-2.99219 -0.20147,-2.20049 -0.28263,-4.41837 -0.42773,-6.62696 -0.15734,-2.39476 -0.37378,-4.78123 -0.46485,-7.18554 -0.15801,-4.17147 -0.22261,-8.36237 -0.23828,-12.5625 0.0791,0.3242 0.1387,0.58016 0.2207,0.91406 v 0.002 0.002 c 0.4935,1.97396 1.02222,4.03637 1.58594,6.18554 0.56521,2.15487 1.13109,4.18684 1.69727,6.09766 l 0.004,0.01 0.002,0.0117 c 0.60178,1.87616 1.17005,3.52639 1.70508,4.95313 0.32945,0.87853 0.67843,1.32649 1.01171,1.91211 0.21726,0.38175 0.40603,0.97004 0.66016,1.24609 0.54129,0.65157 1.12016,1.18577 1.75781,1.56836 l 0.0215,0.0137 0.0215,0.0117 c 0.72305,0.38563 1.57395,0.53907 2.5293,0.53907 1.32245,0 2.48707,-0.33083 3.29297,-1.13672 l 0.01,-0.01 0.01,-0.0117 c 0.40624,-0.43163 0.66797,-1.07649 0.97656,-1.65039 0.20714,-0.38524 0.48716,-0.66164 0.65625,-1.10742 v -0.002 -0.002 c 0.97244,-2.59316 1.67683,-5.27656 2.10938,-8.04687 l 0.002,-0.0117 c 0.45517,-2.69554 0.92607,-5.33765 1.41602,-7.92774 l 0.002,-0.008 c 0.49024,-2.4863 0.96447,-4.93857 1.41992,-7.35547 0.38636,4.66304 0.82484,9.3341 1.03125,13.9668 v 0.004 0.002 c 0.1794,3.60596 0.32329,7.28315 0.48438,10.92578 l -7.1211,-0.4375 7.1211,0.43945 c 0.15458,3.49548 0.32711,6.95513 0.46484,10.48438 0.0359,0.9328 0.0885,1.67482 0.16601,2.25586 0.0871,0.65318 0.29454,1.25537 0.67774,1.74805 l 0.006,0.006 0.004,0.006 c 0.39823,0.49779 0.93486,0.87555 1.54883,1.13868 l 0.01,0.004 0.0117,0.006 c 0.58101,0.2324 1.31205,0.46847 2.21289,0.72071 l -0.11524,-0.041 c 0.48303,0.20127 0.9881,0.34036 1.50782,0.42383 0.51277,0.11625 1.01977,0.18164 1.51562,0.18164 0.97072,0 1.89668,-0.28522 2.46094,-1.01367 0.29334,-0.35712 0.30899,-0.85615 0.42773,-1.3086 h 0.32617 v -1 c 0,-0.35365 -0.0195,-0.69424 -0.0605,-1.02148 -0.0352,-0.28139 -0.0901,-0.57689 -0.1543,-0.87891 -0.27807,-3.69276 -0.49726,-7.38538 -0.7207,-11.07812 z m -50.17578,-3.08398 -13.42383,-0.82617 c -0.31701,-0.44603 -0.70445,-0.83913 -1.01367,-1.29102 l -0.002,-0.004 c -2.26498,-3.34548 -4.3199,-6.77686 -6.16602,-10.29492 l -1.93945,-3.8789 c 1.77162,-2.25671 3.37416,-4.45921 4.69726,-6.57618 l 0.002,-0.004 0.002,-0.002 c 1.42667,-2.31834 2.67714,-4.65792 3.75,-7.01758 l 0.002,-0.006 c 1.10544,-2.38979 2.06881,-4.86674 2.88868,-7.43164 l 0.002,-0.006 c 0.85183,-2.55603 1.64798,-5.33729 2.39062,-8.3418 0.38748,-1.47947 0.75694,-2.93999 1.10938,-4.38476 0.40811,-1.5252 0.61133,-3.10537 0.61133,-4.73243 0,-0.76751 -0.21809,-1.51282 -0.62696,-2.15625 -0.3512,-0.60508 -0.83231,-1.12914 -1.41601,-1.54882 -0.55099,-0.42058 -1.18315,-0.73197 -1.87305,-0.9375 -0.68056,-0.23676 -1.36552,-0.36719 -2.04297,-0.36719 -0.75438,-1e-5 -1.51076,0.36363 -1.98828,0.94726 l -0.004,0.004 -0.002,0.004 c -0.37029,0.46287 -0.65007,1.01075 -0.85547,1.62695 l -0.006,0.0215 -0.006,0.0215 c -0.14848,0.51968 -0.27811,1.05463 -0.38867,1.60742 l -0.006,0.0332 -0.004,0.0312 c -0.0674,0.50543 -0.11575,0.92107 -0.15235,1.27735 -1.11417,5.91505 -2.74901,11.58288 -4.90429,17.00586 -1.77489,4.4368 -4.229302,8.57955 -7.097659,12.54687 -0.05112,-2.77233 -0.103173,-5.54607 -0.154297,-8.28125 v -0.01 c -0.03538,-3.77314 -0.142081,-7.58094 -0.31836,-11.42383 v -0.0117 -0.0117 c -0.209413,-3.03651 -0.314453,-6.14512 -0.314453,-9.32422 0,-2.28838 -0.64518,-4.14182 -2.105469,-5.19141 -1.350138,-0.9704 -3.119762,-1.40039 -5.226562,-1.40039 -0.781327,0 -1.545196,0.17885 -2.242188,0.52735 -0.920597,0.46029 -1.396484,1.51556 -1.396484,2.58203 0,1.19113 0.05386,2.38345 0.16211,3.57422 l 0.002,0.0137 0.002,0.0156 c 0.139508,1.15095 0.260611,2.30227 0.365234,3.45313 0.421687,4.99018 0.826327,9.98053 1.212891,14.9707 v 0.002 c 0.384904,4.93378 0.578125,9.90163 0.578125,14.90625 0,1.41785 -0.05277,2.79936 -0.15625,4.14453 -0.107585,1.39861 -0.160157,2.8322 -0.160156,4.29883 0,3.18346 0.03649,6.34888 0.101562,9.5 l -14.304688,-0.87891 c -0.154895,-0.19445 -0.318048,-0.38954 -0.472656,-0.58399 l -0.0059,-0.006 c -3.171478,-4.06354 -6.304684,-8.16339 -9.414063,-12.28907 1.826628,-1.26747 3.637307,-2.62807 5.402344,-4.23828 2.090833,-1.91059 3.950249,-4.00378 5.574219,-6.27734 1.62775,-2.27885 2.951663,-4.69068 3.966797,-7.22852 v -0.002 l 0.002,-0.002 c 1.029035,-2.60933 1.546875,-5.30762 1.546875,-8.07032 0,-2.57188 -0.42513,-5.04964 -1.273438,-7.41015 -0.84721,-2.35745 -2.071426,-4.45615 -3.664062,-6.27344 l -0.002,-0.002 c -1.566772,-1.82731 -3.478964,-3.28733 -5.705078,-4.36328 -2.253665,-1.08926 -4.750855,-1.63086 -7.451172,-1.63086 -2.85842,0 -5.592202,0.53112 -8.201172,1.50586 -0.527028,-0.47531 -1.05144,-0.96637 -1.720703,-1.18946 -0.833578,-0.27786 -1.681431,-0.42187 -2.53125,-0.42187 -0.720046,0 -1.433473,0.20281 -1.949219,0.70508 -0.415577,0.37499 -0.717516,0.86153 -0.898437,1.40429 l -0.0098,0.0254 -0.0078,0.0274 c -0.124414,0.45621 -0.202796,0.94108 -0.242187,1.45312 l -0.0039,0.0371 v 1.25195 0.44141 c -0.189509,0.13522 -0.368739,0.24967 -0.574219,0.41406 -0.380334,0.30427 -0.741206,0.62794 -1.083985,0.97071 l -0.02148,0.0215 -0.01953,0.0215 c -0.333342,0.37501 -0.623514,0.78992 -0.869141,1.24024 l -0.01758,0.0332 -0.01563,0.0332 c -0.227847,0.50126 -0.353516,1.03575 -0.353515,1.57421 0,0.50815 0.09398,1.02021 0.263671,1.5293 l 0.01563,0.0488 0.02148,0.0488 c 0.20706,0.45553 0.472679,0.90091 0.789062,1.33594 l 0.01172,0.0176 0.01563,0.0176 c 0.33728,0.4216 0.723844,0.78911 1.15625,1.0918 l 0.01953,0.0137 0.01758,0.0117 c 0.224691,0.14297 0.492836,0.16094 0.738282,0.2539 -0.06256,2.85458 -0.113961,5.67661 -0.146485,8.44141 -0.03523,2.99407 -0.05273,6.03933 -0.05273,9.13867 0,7.11724 0.124463,14.25201 0.371094,21.4043 v 0.004 0.002 c 0.0507,1.28023 0.177386,2.55684 0.251953,3.83594 0.341333,5.85422 0.867833,11.69924 1.708984,17.52929 l 0.002,0.0117 0.002,0.01 c 0.107999,0.64799 0.216279,1.21259 0.328125,1.69726 l 0.0078,0.0352 0.01172,0.0332 c 0.207767,0.67524 0.65449,1.25082 1.230468,1.75196 0.37331,0.36338 0.834625,0.62359 1.34961,0.79687 0.506367,0.1927 1.04252,0.34562 1.609375,0.45899 0.565338,0.11304 1.116286,0.19006 1.654297,0.22851 0.509361,0.0364 0.952768,0.0547 1.33789,0.0547 0.751056,0 1.472515,-0.15363 2.13086,-0.45508 0.45924,-0.1902 0.864379,-0.55642 1.091797,-0.99609 0.231037,-0.44668 0.310546,-0.93404 0.310546,-1.44727 0,-0.58771 -0.08548,-1.16501 -0.255859,-1.71875 -0.09757,-0.4211 -0.193182,-0.82822 -0.291016,-1.2207 -0.801859,-4.04417 -1.377914,-8.12228 -1.726562,-12.23633 -0.09835,-1.30078 -0.157952,-2.60158 -0.246094,-3.90234 l 3.986328,0.24414 c 0.576466,0.78905 1.108426,1.50023 1.730469,2.37109 l 0.0078,0.01 0.0059,0.01 c 1.264361,1.68582 2.530482,3.38833 3.794922,5.10938 l 0.0059,0.0117 0.0078,0.01 c 1.297659,1.68345 2.542606,3.33096 3.734375,4.94336 l 0.0039,0.006 0.0039,0.006 c 1.230097,1.61669 2.319586,3.05631 3.267578,4.32031 l 0.0039,0.008 0.0059,0.006 c 0.98534,1.26686 1.795545,2.30495 2.429687,3.11524 l 0.01367,0.0195 0.01758,0.0195 c 0.341012,0.39485 0.620129,0.7062 0.851563,0.94727 0.231434,0.24108 0.345541,0.38779 0.65625,0.57421 l 0.02344,0.0137 0.02344,0.0137 c 0.634162,0.33572 1.194886,0.57223 1.730469,0.70898 0.58905,0.17769 1.247983,0.25 2.007812,0.25 0.36322,0 0.805198,-0.039 1.384766,-0.11133 0.655833,-0.0771 1.295005,-0.21258 1.916015,-0.40624 0.671063,-0.1983 1.272289,-0.46343 1.792969,-0.81055 0.613607,-0.40907 1.077329,-1.13002 1.078125,-1.88477 v -0.002 -0.002 c -6.05e-4,-0.69241 -0.298387,-1.16596 -0.691406,-1.75586 -0.336902,-0.55796 -0.737144,-1.12378 -1.203125,-1.69922 l -0.0059,-0.008 c -0.47249,-0.61739 -0.948307,-1.18487 -1.427735,-1.70118 l 0.02734,0.0293 c -0.42212,-0.49247 -0.740114,-0.86119 -0.951172,-1.10742 -3.381365,-4.08461 -6.689786,-8.16954 -9.943359,-12.25391 l 14.302734,0.87891 c 0.0027,0.12827 0.0011,0.25851 0.0039,0.38672 0.0702,3.26419 0.105469,6.54617 0.105469,9.8457 0,1.06609 0.07317,2.05227 0.224609,2.96094 0.15848,0.95088 0.46189,1.81636 0.923828,2.57226 l 0.01758,0.0293 0.01953,0.0254 c 0.519787,0.73637 1.221924,1.32483 2.05664,1.74219 l 0.0098,0.006 0.0078,0.004 c 0.916723,0.43654 1.996741,0.625 3.226562,0.625 0.682949,0 1.381487,-0.22719 1.869141,-0.71484 0.399264,-0.39927 0.692129,-0.89866 0.875,-1.44727 0.167065,-0.50117 0.269358,-1.02309 0.310547,-1.55859 v -0.002 l 0.002,-0.004 c 0.03651,-0.51104 0.05469,-0.97336 0.05469,-1.39062 v -12.48243 l 3.47461,0.2129 c 0.702193,1.17141 1.279827,2.44732 2.023437,3.58398 l 0.002,0.004 0.004,0.006 c 2.51245,3.751 5.18321,7.41288 8.01367,10.98632 0.41416,0.55235 0.81179,1.08781 1.19141,1.60547 0.40804,0.55642 0.83924,1.06156 1.29296,1.51758 0.47636,0.51471 1.01756,0.95367 1.61329,1.31445 0.64393,0.42646 1.38162,0.72126 2.18945,0.88282 l -0.35938,-0.15039 c 0.25488,0.17004 0.77777,0.35932 1.26563,0.11523 -0.10854,0.0543 -0.17794,0.0527 -0.18359,0.0527 0.47784,0 1.02954,-0.0609 1.69531,-0.17187 0.71895,-0.11396 1.42017,-0.28394 2.10351,-0.51172 0.72278,-0.24093 1.37221,-0.57117 1.92969,-1 0.63606,-0.48928 1.07617,-1.25659 1.07617,-2.05859 0,-0.54481 -0.20434,-1.12631 -0.60156,-1.53321 -0.76468,-1.1358 -1.63879,-2.15831 -2.65039,-3.02539 l 0.0293,0.0254 c -0.92575,-0.85717 -1.83539,-1.78484 -2.73047,-2.7832 -2.31194,-2.58217 -4.39367,-5.33541 -6.39453,-8.15039 z m -38.220702,15.27734 -0.0098,0.12891 0.0098,-0.0664 z M 265.77539,0.738284 c -2.01825,0 -3.98887,0.25862 -5.90234,0.77343 -1.90026,0.48565 -3.63428,1.2749 -5.17578,2.36524 -1.531,1.07275 -2.78089,2.47941 -3.72657,4.18164 l -0.002,0.004 -0.002,0.004 c -0.93728,1.71832 -1.38672,3.74261 -1.38672,6.01953 0,2.78937 0.63541,5.5277 1.88867,8.18164 l 0.002,0.006 0.004,0.006 c 1.25902,2.58998 2.81827,5.17144 4.67773,7.7461 1.84394,2.55313 3.84601,5.12228 6.00586,7.70703 2.12594,2.54414 4.09375,5.13898 5.9043,7.78515 l 0.002,0.002 0.002,0.002 c 1.79364,2.58702 3.27315,5.23867 4.4414,7.95313 l 0.002,0.004 0.002,0.006 c 1.17801,2.65895 1.76172,5.37937 1.76172,8.19531 0,1.42733 -0.18324,2.89467 -0.55274,4.40625 l -0.002,0.008 -0.002,0.01 c -0.32811,1.44369 -0.86247,2.7383 -1.60742,3.9043 l -0.006,0.008 -0.006,0.008 c -0.61147,1.00058 -1.45485,1.76831 -2.40821,2.45118 -0.13296,0.0952 -0.19582,0.25227 -0.33593,0.34179 -1.08937,0.69597 -2.39451,1.05664 -4,1.05664 -2.2905,0 -3.86068,-0.65048 -4.99219,-1.92578 -0.012,-0.0143 -0.0154,-0.0345 -0.0274,-0.0488 -1.1068,-1.34263 -1.68359,-3.03861 -1.68359,-5.25781 v -3.06055 c 0,-0.84615 -0.31067,-1.66398 -0.84375,-2.33984 -0.45866,-0.6561 -1.03699,-1.2211 -1.72461,-1.66602 -0.66879,-0.43275 -1.39862,-0.76156 -2.17578,-0.99804 -0.7446,-0.27169 -1.4655,-0.42774 -2.16602,-0.42774 -0.93685,0 -1.85302,0.39711 -2.42187,1.1211 l -0.004,0.004 -0.002,0.004 c -0.44394,0.57712 -0.7719,1.27158 -1.00977,2.06445 l -0.006,0.0156 -0.004,0.0156 c -0.19475,0.74016 -0.30937,1.51488 -0.34766,2.31836 -0.0357,0.74926 -0.0547,1.37823 -0.0547,1.89453 0,2.01337 0.34698,3.85651 0.88868,5.59961 v 0.002 0.002 c 0.14094,0.45323 0.2222,0.93724 0.40039,1.37109 l 0.002,0.008 0.004,0.008 c 0.89433,2.08678 2.13798,3.8819 3.7207,5.35156 1.57463,1.46216 3.43425,2.58675 5.54883,3.36719 0.001,5.1e-4 0.003,9.5e-4 0.004,0.002 0.002,7.2e-4 0.004,9.5e-4 0.006,0.002 2.15873,0.81739 4.49803,1.22266 6.99414,1.22266 2.83692,0 5.45461,-0.55764 7.8125,-1.67969 2.32622,-1.07204 4.32422,-2.52697 5.9629,-4.35156 0.90276,-1.00308 1.66919,-2.10957 2.34374,-3.28516 0.57343,-0.99933 1.08745,-2.0437 1.49415,-3.16211 0.88524,-2.43446 1.32617,-5.01733 1.32617,-7.72851 v -1 h -0.0723 c -0.0852,-2.3064 -0.40962,-4.56087 -1.08008,-6.73242 -0.72107,-2.48403 -1.69351,-4.88053 -2.91601,-7.1836 l -0.004,-0.006 c -1.181,-2.28962 -2.5398,-4.48999 -4.07617,-6.59961 -1.48982,-2.12831 -3.03188,-4.18641 -4.62891,-6.17382 -1.58149,-1.96809 -3.12868,-3.86481 -4.64062,-5.69336 l -0.01,-0.0137 -0.002,-0.002 c -1.45609,-1.83816 -2.77167,-3.62136 -3.94727,-5.34961 -1.13005,-1.71222 -2.04794,-3.37952 -2.75976,-5.0039 v -0.002 c -0.65937,-1.5831 -0.97852,-3.10162 -0.97852,-4.57422 0,-1.04713 0.17647,-1.85266 0.47266,-2.44726 0.3579,-0.68296 0.79722,-1.19932 1.33008,-1.59375 0.5879,-0.40922 1.26454,-0.70639 2.06054,-0.89063 0.87463,-0.19407 1.78457,-0.29296 2.73438,-0.29297 1.35282,0 2.40561,0.18656 3.14648,0.5 0.78209,0.33088 1.37059,0.77281 1.82422,1.33985 0.46634,0.58291 0.83235,1.31437 1.08399,2.22656 0.2674,0.96935 0.48728,2.07212 0.6582,3.30274 l -0.004,-0.0332 c 0.0733,0.69651 0.16658,1.29475 0.28516,1.8086 0.12448,0.53941 0.3135,1.04872 0.57031,1.51953 l 0.01,0.0176 0.0117,0.0176 c 0.26906,0.44844 0.61651,0.85917 1.03125,1.23243 l 0.0391,0.0352 0.043,0.0293 c 0.44086,0.32062 0.97021,0.64048 1.59765,0.97266 l 0.01,0.006 0.01,0.004 c 0.82278,0.41139 1.68839,0.63477 2.55859,0.63477 0.73057,0 1.48223,-0.33034 1.94141,-0.9043 l 0.0137,-0.0176 0.0137,-0.0176 c 0.35348,-0.48603 0.61703,-1.03753 0.78711,-1.63281 l 0.002,-0.01 0.002,-0.008 c 0.15672,-0.58776 0.25531,-1.17959 0.29493,-1.77344 0.0362,-0.54237 0.0566,-1.00159 0.0566,-1.38671 0,-2.45167 -0.36686,-4.66427 -1.11914,-6.625 -0.71367,-1.9864 -1.78172,-3.69102 -3.19532,-5.06641 -1.40955,-1.37147 -3.12378,-2.41583 -5.10742,-3.12695 -1.99037,-0.71353 -4.21855,-1.06055 -6.66992,-1.06055 z m -16.99609,70.44726 -12,-0.73828 c -0.90417,-7.19218 -1.7346,-14.38062 -2.19336,-21.54883 l 0.002,0.004 c -0.52646,-8.80946 -0.79101,-17.63579 -0.79101,-26.48047 v -9.47461 c 1.67908,-0.0743 3.36392,-0.13086 5.06835,-0.13086 h 0.008 0.01 c 2.13784,-0.0362 4.22509,-0.27298 6.25977,-0.70898 h 0.008 l 0.006,-0.002 c 1.38932,-0.31755 2.56907,-0.96883 3.42383,-1.94726 0.60336,-0.66394 0.9324,-1.49941 1.13476,-2.39258 l 0.22852,0.0918 v -1.47657 c 0,-0.60369 -0.10474,-1.16887 -0.41016,-1.66796 -0.2478,-0.43524 -0.61308,-0.80622 -1.06054,-1.04102 -0.41996,-0.25155 -0.89388,-0.40403 -1.39063,-0.44922 -0.38559,-0.0383 -0.78465,-0.0566 -1.19922,-0.0566 -0.8998,0 -1.79971,0.075 -2.69726,0.22461 -0.83054,0.10382 -1.66165,0.20673 -2.49219,0.31055 l -8.38867,0.9082 c -0.54826,-0.5917 -1.11606,-1.17247 -1.90039,-1.51758 -0.98739,-0.43444 -1.99128,-0.66601 -2.98828,-0.66601 -0.58551,0 -1.15223,0.10511 -1.63672,0.45117 -0.37819,0.27014 -0.68675,0.63716 -0.89453,1.05273 l -0.0137,0.0254 -0.01,0.0273 c -0.15754,0.36768 -0.24436,0.76415 -0.28711,1.1914 -0.007,0.0602 -0.004,0.12654 -0.01,0.1875 -1.56674,0.16846 -3.13257,0.32494 -4.69922,0.44336 -0.003,1.5e-4 -0.005,-1.4e-4 -0.008,0 -0.003,2.5e-4 -0.006,0.002 -0.01,0.002 -1.90899,0.10896 -3.78329,0.361 -5.62305,0.75781 l -0.0156,0.004 -0.0156,0.004 c -1.25734,0.31434 -2.3758,0.88057 -3.30664,1.6875 -1.03362,0.86051 -1.56641,2.16472 -1.56641,3.60938 0,0.74987 0.31251,1.52227 0.90235,1.99414 l 0.006,0.004 0.004,0.004 c 0.52911,0.41152 1.19766,0.58008 1.88086,0.58008 2.24788,0 4.47813,-0.10614 6.69141,-0.32032 1.84643,-0.17585 3.6721,-0.35149 5.49414,-0.52734 -0.004,2.60067 -0.0161,5.17758 -0.0469,7.69727 -0.0352,2.88859 -0.0527,5.79506 -0.0527,8.71875 0,5.36439 0.14148,10.71164 0.42383,16.04101 0.28187,5.32037 0.63384,10.6583 1.05664,16.01367 0.17533,2.4903 0.33236,4.98043 0.47265,7.47071 0.005,0.084 0.0223,0.16793 0.0273,0.25195 0.14559,2.44229 0.39558,4.88483 0.77343,7.32617 3.4e-4,0.002 0.002,0.004 0.002,0.006 3e-4,0.002 -3e-4,0.004 0,0.006 0.11222,0.78117 0.2612,1.44009 0.47656,2 l 0.0176,0.0449 0.0215,0.043 c 0.35019,0.70039 0.96015,1.2007 1.75196,1.67578 0.68905,0.41343 1.52619,0.66094 2.52148,0.81446 0.002,2.5e-4 0.002,0.002 0.004,0.002 0.9742,0.17908 1.8099,0.27539 2.52734,0.27539 0.96009,0 1.84681,-0.23949 2.50195,-0.83008 0.72165,-0.61902 1.0293,-1.57705 1.0293,-2.5957 0,-0.61654 -0.082,-1.23396 -0.24414,-1.8418 l 0.0137,0.0625 c -0.10292,-0.51464 -0.20566,-1.03028 -0.30859,-1.54492 -0.22306,-1.60027 -0.28725,-3.19193 -0.48828,-4.79102 z m 41.84765,-70.02539 c -0.53422,0 -1.00691,0.0531 -1.45507,0.22656 -0.44404,0.1719 -0.88498,0.52375 -1.09376,1.01172 -0.27819,0.62172 -0.3496,1.31577 -0.3496,2.18946 0,1.70236 0.0345,3.40509 0.10546,5.10742 l 0.21094,4.95898 c 0.31657,7.84392 0.6346,15.63659 0.95117,23.375 v 0.002 0.002 c 0.35148,7.69742 0.63286,15.4469 0.84375,23.25 v 1.71484 c 0,0.7021 0.19627,1.39385 0.55078,2.01758 0.31291,0.56891 0.79438,1.03061 1.38477,1.41016 l 0.0352,0.0215 0.0352,0.0195 c 0.58261,0.31073 1.21587,0.57782 1.89649,0.80469 0.67534,0.22511 1.3374,0.3949 1.98828,0.50977 l 0.004,0.002 h 0.006 c 0.66873,0.11145 1.2426,0.17187 1.74805,0.17187 0.88687,0 1.74729,-0.27377 2.32227,-0.90625 0.35659,-0.39225 0.53874,-0.88661 0.65234,-1.41406 h 0.13477 v -1 c 0,-0.32311 -0.0203,-0.6466 -0.0606,-0.96875 -0.0301,-0.24069 -0.0449,-0.48098 -0.0449,-0.7207 v -0.0547 l -0.006,-0.0547 c -0.10194,-0.91745 -0.22497,-2.4429 -0.36524,-4.54687 -0.10556,-2.10981 -0.24656,-4.56534 -0.42187,-7.3711 v -0.0117 c -0.14062,-2.81197 -0.29894,-5.85162 -0.47461,-9.11914 v -0.002 c -0.17583,-3.3056 -0.36913,-6.61237 -0.58008,-9.91797 v -0.0117 c -0.17573,-3.3386 -0.3516,-6.57296 -0.52734,-9.70117 -0.17611,-3.1347 -0.35295,-5.93552 -0.5293,-8.40429 -0.17586,-2.49734 -0.35171,-4.5372 -0.5293,-6.13868 v -0.006 c -0.0709,-0.79647 -0.13861,-1.43343 -0.20312,-1.92187 -0.0647,-0.48991 -0.0912,-0.76997 -0.22656,-1.13086 v -0.004 l -0.002,-0.004 c -0.2314,-0.60164 -0.62443,-1.1277 -1.12109,-1.54297 -0.42957,-0.41857 -0.93522,-0.75697 -1.50195,-1.00391 -0.52493,-0.27645 -1.08753,-0.47884 -1.67969,-0.59961 -0.58286,-0.1524 -1.15002,-0.23828 -1.69727,-0.23828 z M 13.179688,8.726564 c 1.365515,0.34866 2.729355,0.69832 3.912109,1.25195 l 0.0078,0.004 0.0078,0.002 c 1.546384,0.69093 2.859653,1.60254 3.964844,2.74024 l 0.0059,0.004 0.0039,0.006 c 1.098954,1.09896 1.954092,2.40258 2.576172,3.94141 l 0.002,0.004 0.002,0.004 c 0.609792,1.47634 0.925782,3.20589 0.925782,5.21094 0,2.9516 -0.630582,5.69064 -1.900391,8.26367 l -0.002,0.002 -0.002,0.002 c -1.187138,2.43844 -2.972081,4.38888 -5.363282,5.93359 -0.833893,0.004 -1.66808,0.0183 -2.501953,0.0488 -0.595496,4.9e-4 -1.178366,0.23012 -1.767578,0.37109 -0.0089,-0.33305 -0.0072,-0.67578 -0.02344,-1.00195 v -0.004 c -0.03433,-0.72224 -0.05274,-1.42768 -0.05274,-2.11328 v -5.48633 c 0,-3.29951 0.03528,-6.56411 0.105469,-9.79297 0.0666,-3.09709 0.09592,-6.23102 0.09961,-9.39062 z m 46.388671,1.1875 c 1.271513,0 2.366566,0.31317 3.369141,0.95117 l 0.0059,0.004 0.0059,0.004 c 1.086262,0.67093 2.003921,1.52517 2.77539,2.58594 l 0.0059,0.006 0.0039,0.006 c 0.77624,1.03498 1.375169,2.20019 1.800781,3.50976 0.429284,1.32087 0.636719,2.56949 0.636719,3.75391 0,2.04655 -0.409806,4.0736 -1.244141,6.10938 -0.845537,2.0283 -1.96085,3.95676 -3.353515,5.79101 l -0.0039,0.004 -0.0039,0.004 c -1.363396,1.84059 -2.911675,3.5097 -4.65039,5.00977 l -0.0039,0.004 -0.0039,0.002 c -1.54143,1.35646 -3.110296,2.4287 -4.691406,3.35937 -0.09565,-4.86607 -0.178824,-9.73353 -0.244141,-14.59961 l 0.002,0.01 c -0.03365,-5.01374 -0.08652,-10.02728 -0.152343,-15.04102 0.827913,-0.37942 1.663268,-0.73524 2.535156,-0.98046 l 0.0098,-0.004 0.0098,-0.004 c 1.072293,-0.32493 2.131586,-0.48437 3.191406,-0.48437 z m -38.609375,34.59961 c 1.538852,0.42816 2.85102,1.00973 3.84961,1.80273 1.095609,0.87005 1.971738,1.90636 2.648437,3.13086 l 0.002,0.004 0.0039,0.006 c 0.679714,1.19759 1.152729,2.52682 1.416015,4.00781 v 0.01 l 0.0039,0.0117 c 0.303181,1.51591 0.455079,3.08496 0.455079,4.71094 0,2.19931 -0.28722,4.24508 -0.855469,6.15039 l -0.002,0.008 -0.002,0.008 c -0.531112,1.89207 -1.352131,3.54576 -2.466797,4.98828 l -0.002,0.002 c -1.075456,1.40135 -2.444807,2.5781 -4.134766,3.53906 -1.388332,0.77663 -3.042155,1.28849 -4.876953,1.625 -0.09101,-0.61051 -0.150848,-1.2321 -0.314453,-1.8164 l 0.01172,0.0449 c -0.208034,-0.90149 -0.398908,-1.80191 -0.572265,-2.70313 v -0.004 c -0.7336,-3.91308 -1.309353,-7.8261 -1.728516,-11.73828 -0.359082,-3.68959 -0.663683,-7.37884 -0.93164,-11.06836 2.625089,-0.54793 5.132821,-1.4397 7.496093,-2.71875 z m 33.777344,9.06836 c 0.757157,1.03259 1.633768,2.22833 2.654297,3.62304 l 0.0039,0.004 0.002,0.004 c 0.51724,0.68965 1.123132,1.53755 1.683594,2.30468 l -3.984375,-0.24414 c -0.128545,-1.89712 -0.252549,-3.79429 -0.359375,-5.6914 z m 40.658203,2.23047 c 1.083372,2.11325 2.269144,4.14128 3.47461,6.15234 l -3.47461,-0.21289 z m 198.345699,15.10351 c -0.435,0 -0.87648,0.0686 -1.32031,0.18555 -0.46936,0.0968 -0.90977,0.30698 -1.2793,0.60937 -0.2379,0.17784 -0.24961,0.49928 -0.3789,0.77149 l -0.39453,0.22461 v 0.58008 c 0,0.16039 0.0595,0.30383 0.0723,0.46093 0.0341,0.41855 0.0603,0.84112 0.18946,1.22852 0.12489,0.37469 0.21783,0.74448 0.27929,1.11328 0.1387,0.9021 0.24247,1.63116 0.31055,2.17578 l 0.004,0.0312 0.006,0.0293 c 0.12152,0.64814 0.30489,1.20929 0.625,1.68945 l 0.0195,0.0312 0.0234,0.0273 c 0.4257,0.54733 1.06702,0.86263 1.75391,1 0.65337,0.13068 1.48167,0.17774 2.57031,0.17774 0.45867,0 0.93008,-0.0419 1.41211,-0.11328 0.68331,-0.0582 1.34602,-0.47953 1.71094,-1.06641 0.0548,-0.0871 0.13521,-0.19504 0.15234,-0.24219 0.0276,-0.0761 0.0385,-0.12531 0.0488,-0.17187 0.0207,-0.0931 0.0319,-0.16966 0.043,-0.25781 0.0202,-0.16125 0.036,-0.36598 0.0527,-0.60743 0.0758,-0.60633 0.11271,-1.25793 0.11329,-1.95507 0.0335,-0.64676 0.0497,-1.24562 0.0508,-1.80274 v -0.0156 c 2e-5,-0.0133 0.002,-0.0298 0.002,-0.043 0.0323,-0.55394 0.0527,-0.93115 0.0527,-1.16211 0,-0.6727 -0.31153,-1.36918 -0.8418,-1.80274 -0.39749,-0.37521 -0.88452,-0.65046 -1.41992,-0.78906 -0.51985,-0.16764 -1.06927,-0.2539 -1.64063,-0.2539 l 0.0762,0.002 c -0.47685,-0.0367 -0.90393,-0.0547 -1.28906,-0.0547 z" /></svg>
